<svg width="100" height="100" viewBox="0 0 100 100" fill="none" xmlns="http://www.w3.org/2000/svg">
<path d="M10.3809 80.4688H13.4326C13.9828 80.4871 14.5046 80.7175 14.8887 81.1123C15.2757 81.5102 15.4922 82.0435 15.4922 82.5986C15.4921 83.1537 15.2757 83.6871 14.8887 84.085C14.5016 84.4826 13.9746 84.7133 13.4199 84.7285H10.3809C9.20436 84.7283 8.25 83.7732 8.25 82.5967C8.2501 81.4222 9.20245 80.469 10.3809 80.4688Z" fill="#F3AD61" stroke="#FFC900" stroke-width="4"/>
<path d="M29.6846 42.624C31.2213 42.6241 32.7418 42.939 34.1523 43.5488C35.5629 44.1587 36.834 45.0504 37.8867 46.1699L37.8936 46.1777L37.9004 46.1846L44.7109 53.2822V53.2832C44.8765 53.4562 44.9232 53.6922 44.8252 53.9385C44.7773 54.0588 44.7066 54.1396 44.6455 54.1846C44.595 54.2217 44.5322 54.25 44.4277 54.25H14.9463C14.8421 54.2499 14.7799 54.2216 14.7295 54.1846C14.6684 54.1396 14.5977 54.0588 14.5498 53.9385C14.4519 53.6923 14.4977 53.4561 14.6631 53.2832L14.6621 53.2822L21.4688 46.1836L21.4756 46.1768L21.4814 46.1699C22.5342 45.0505 23.8053 44.1587 25.2158 43.5488C26.6265 42.939 28.1477 42.624 29.6846 42.624ZM76.5605 42.627C78.097 42.627 79.6179 42.9414 81.0283 43.5508C82.4386 44.1602 83.7097 45.0521 84.7627 46.1709L84.7686 46.1777L84.7744 46.1836L91.5811 53.2842H91.582C91.7548 53.4643 91.7965 53.7021 91.7012 53.9424C91.6541 54.0608 91.5848 54.1412 91.5244 54.1855C91.4746 54.2221 91.4111 54.25 91.3057 54.25H61.8213C61.7171 54.2499 61.6549 54.2216 61.6045 54.1846C61.5434 54.1396 61.4727 54.0588 61.4248 53.9385C61.3269 53.6923 61.3727 53.4561 61.5381 53.2832L61.5371 53.2822L68.3467 46.1846L68.3525 46.1777L68.3594 46.1709C69.4124 45.052 70.6833 44.1602 72.0938 43.5508C73.5041 42.9414 75.0242 42.627 76.5605 42.627Z" fill="#F9C23C" stroke="#FFC900" stroke-width="4"/>
<path d="M52.4722 8.32043C55.3238 7.91008 58.1702 9.36044 60.8989 12.7247C63.6177 16.0768 65.9338 21.0185 67.6079 26.6583C69.2751 32.2749 70.2657 38.4486 70.4185 44.1661C70.5721 49.9194 69.8724 55.0356 68.3062 58.6368C65.0631 66.095 59.9632 70.6513 53.6626 74.1359C47.2322 77.6922 39.7993 80.0226 31.6899 83.2101C30.4071 83.7136 29.0521 84.0048 27.6782 84.0724L27.0884 84.087C25.3098 84.0877 23.7662 84.4548 22.479 84.8536C21.8443 85.0503 21.2435 85.2645 20.7388 85.4396C20.2118 85.6223 19.7921 85.762 19.4204 85.8566C18.6557 86.0511 18.4672 85.9527 18.4185 85.9259C18.3357 85.8804 18.0124 85.6518 17.5913 84.6798L17.4048 84.2169C14.8289 77.2816 18.2284 69.5648 24.8862 66.9523C33.9988 63.3772 38.7603 56.4722 42.2212 47.6398C43.9628 43.1984 44.9316 39.9663 45.4468 36.587C45.9572 33.2386 46.0087 29.819 46.0024 25.0695V25.0675C45.9943 21.1255 45.8845 17.0899 46.7583 13.838C47.1834 12.2561 47.8081 11.0117 48.6753 10.1124C49.5151 9.24162 50.6958 8.57566 52.4722 8.32043Z" fill="#FEEFC2" stroke="#FFC900" stroke-width="4"/>
<mask id="path-4-inside-1_134_51" fill="white">
<path d="M70.1407 59.4374L40.5782 45.8624C37.1845 53.6687 31.0376 59.6468 23.2657 62.7062C14.2626 66.2437 8.24384 75.9249 13.172 85.7874C23.0188 105.487 70.1407 85.5812 70.1407 59.4343"/>
</mask>
<path d="M70.1407 59.4374L40.5782 45.8624C37.1845 53.6687 31.0376 59.6468 23.2657 62.7062C14.2626 66.2437 8.24384 75.9249 13.172 85.7874C23.0188 105.487 70.1407 85.5812 70.1407 59.4343" fill="#FCD53F"/>
<path d="M40.5782 45.8624L42.2474 42.2274L38.5375 40.5238L36.9099 44.2676L40.5782 45.8624ZM23.2657 62.7062L24.7285 66.4291L24.7309 66.4282L23.2657 62.7062ZM13.172 85.7874L9.59381 87.5754L9.59403 87.5758L13.172 85.7874ZM70.1407 59.4374L71.8099 55.8024L42.2474 42.2274L40.5782 45.8624L38.909 49.4975L68.4715 63.0725L70.1407 59.4374ZM40.5782 45.8624L36.9099 44.2676C33.9306 51.1207 28.5648 56.3215 21.8006 58.9842L23.2657 62.7062L24.7309 66.4282C33.5104 62.9722 40.4384 56.2167 44.2465 47.4572L40.5782 45.8624ZM23.2657 62.7062L21.8029 58.9833C16.4669 61.0799 11.9018 65.0332 9.40522 70.1097C6.86158 75.2818 6.54954 81.483 9.59381 87.5754L13.172 85.7874L16.7501 83.9995C14.8663 80.2294 15.0995 76.6587 16.584 73.6402C18.1156 70.526 21.0615 67.87 24.7285 66.4291L23.2657 62.7062ZM13.172 85.7874L9.59403 87.5758C12.8626 94.1151 19.1628 97.0688 25.8871 97.6431C32.5434 98.2116 40.0423 96.539 46.9734 93.4587C53.9329 90.3658 60.6302 85.7177 65.637 79.984C70.6402 74.2543 74.1407 67.21 74.1407 59.4343H70.1407H66.1407C66.1407 64.732 63.751 69.9811 59.6111 74.722C55.4748 79.4589 49.7763 83.4586 43.7245 86.1482C37.6442 88.8503 31.5164 90.0947 26.5679 89.6721C21.6874 89.2553 18.4047 87.3098 16.7499 83.999L13.172 85.7874Z" fill="#FFC900" mask="url(#path-4-inside-1_134_51)"/>
<path d="M56.1118 51.6516C56.3857 51.6288 56.6615 51.6607 56.9233 51.7444C57.4517 51.9135 57.8916 52.2855 58.146 52.7786C58.4004 53.2716 58.4492 53.8456 58.2808 54.3743C52.134 73.6245 34.198 82.5312 18.1372 83.3557C17.5849 83.3807 17.0447 83.1872 16.6353 82.8157C16.2256 82.4439 15.9801 81.9248 15.9517 81.3723C15.9233 80.8198 16.1144 80.2782 16.4839 79.8665C16.8534 79.4547 17.371 79.2065 17.9233 79.175L17.9224 79.1741C32.7995 78.411 48.8259 70.2155 54.2915 53.1008C54.3752 52.839 54.5095 52.5959 54.687 52.386C54.8646 52.1761 55.0822 52.0032 55.3267 51.8772C55.571 51.7513 55.8378 51.6744 56.1118 51.6516Z" fill="#F9C23C" stroke="#FFC900" stroke-width="0.5"/>
<path d="M68.8354 47.8969C74.3478 48.1954 78.7532 52.895 78.7534 58.6996V82.3002C78.7534 83.0574 78.5807 83.4971 78.439 83.7084C78.3231 83.8809 78.2105 83.942 78.0532 83.9642C77.5995 84.0284 76.1881 83.7469 74.1304 81.3929L45.1353 47.8969H68.8354Z" fill="#FFF478" stroke="#FFC900" stroke-width="4"/>
</svg>
