<svg width="40" height="40" viewBox="0 0 40 40" fill="none" xmlns="http://www.w3.org/2000/svg">
<path d="M11.6667 16.1117C11.6667 14.9329 12.1351 13.8023 12.9687 12.9687C13.8023 12.1351 14.9329 11.6667 16.1117 11.6667H30.5551C31.1388 11.6667 31.7168 11.7817 32.2561 12.0051C32.7954 12.2285 33.2854 12.5559 33.6982 12.9687C34.1109 13.3814 34.4383 13.8714 34.6617 14.4107C34.8851 14.95 35.0001 15.528 35.0001 16.1117V30.5551C35.0001 31.1388 34.8851 31.7168 34.6617 32.2561C34.4383 32.7954 34.1109 33.2854 33.6982 33.6982C33.2854 34.1109 32.7954 34.4383 32.2561 34.6617C31.7168 34.8851 31.1388 35.0001 30.5551 35.0001H16.1117C15.528 35.0001 14.95 34.8851 14.4107 34.6617C13.8714 34.4383 13.3814 34.1109 12.9687 33.6982C12.5559 33.2854 12.2285 32.7954 12.0051 32.2561C11.7817 31.7168 11.6667 31.1388 11.6667 30.5551V16.1117Z" stroke="#5E5E5E" stroke-width="6" stroke-linecap="round" stroke-linejoin="round"/>
<path d="M6.68667 27.895C6.175 27.6043 5.74942 27.1833 5.45317 26.6748C5.15692 26.1663 5.00057 25.5885 5 25V8.33333C5 6.5 6.5 5 8.33333 5H25C26.25 5 26.93 5.64167 27.5 6.66667" stroke="#5E5E5E" stroke-width="6" stroke-linecap="round" stroke-linejoin="round"/>
</svg>
