<svg width="64" height="64" viewBox="0 0 64 64" fill="none" xmlns="http://www.w3.org/2000/svg">
<path d="M62.3201 52.72L54.3201 38.9066C54.2543 38.8028 54.1639 38.7169 54.0569 38.6564C53.9499 38.596 53.8296 38.5628 53.7068 38.56C53.588 38.5641 53.4726 38.6012 53.3737 38.6671C53.2748 38.733 53.1962 38.8252 53.1468 38.9333C52.5473 40.093 51.7739 41.1542 50.8534 42.08C49.6496 43.2892 48.2081 44.2359 46.6201 44.8601C45.032 45.4843 43.3318 45.7725 41.6268 45.7066C41.4363 45.7079 41.2541 45.7847 41.1201 45.92C40.3321 46.7263 39.4344 47.4175 38.4534 47.9733C38.3021 48.0624 38.192 48.2075 38.147 48.3773C38.1021 48.5471 38.126 48.7277 38.2134 48.88L46.0534 62.2133C46.3114 62.6476 46.6874 62.9998 47.1377 63.2287C47.588 63.4577 48.094 63.554 48.597 63.5065C49.0999 63.459 49.579 63.2696 49.9784 62.9604C50.3779 62.6512 50.6814 62.2349 50.8534 61.76L53.0668 55.6533L59.4401 56.72C59.9426 56.8124 60.4611 56.7584 60.9339 56.5646C61.4066 56.3708 61.8137 56.0452 62.1068 55.6266C62.4205 55.2151 62.6078 54.7212 62.6456 54.205C62.6835 53.6889 62.5704 53.1729 62.3201 52.72ZM22.8801 45.92C22.8155 45.8523 22.7362 45.8002 22.6484 45.7679C22.5606 45.7355 22.4665 45.7237 22.3734 45.7333C20.6674 45.7877 18.9684 45.4915 17.3814 44.8632C15.7944 44.2348 14.3531 43.2875 13.1468 42.08C12.2263 41.1542 11.4529 40.093 10.8534 38.9333C10.804 38.8252 10.7254 38.733 10.6265 38.6671C10.5276 38.6012 10.4122 38.5641 10.2934 38.56C10.1706 38.5628 10.0503 38.596 9.9433 38.6564C9.83631 38.7169 9.7459 38.8028 9.68009 38.9066L1.68009 52.72C1.43902 53.151 1.32238 53.6405 1.34319 54.134C1.36399 54.6274 1.52142 55.1054 1.79792 55.5146C2.07442 55.9238 2.45913 56.2482 2.90917 56.4516C3.35921 56.655 3.8569 56.7295 4.34676 56.6666L10.7201 55.6L12.9334 61.7066C13.1055 62.1816 13.4089 62.5979 13.8084 62.9071C14.2079 63.2163 14.687 63.4057 15.1899 63.4532C15.6928 63.5007 16.1989 63.4043 16.6492 63.1754C17.0995 62.9465 17.4755 62.5943 17.7334 62.16L25.5734 48.8266C25.6522 48.6972 25.6846 48.5449 25.6652 48.3946C25.6458 48.2443 25.5758 48.1051 25.4668 48C24.5179 47.4219 23.6484 46.7226 22.8801 45.92ZM39.4934 41.3333C40.9785 41.8204 42.5696 41.8862 44.0898 41.5234C45.61 41.1606 46.9999 40.3835 48.1051 39.2783C49.2103 38.1732 49.9874 36.7833 50.3502 35.263C50.7129 33.7428 50.6471 32.1517 50.1601 30.6666C51.5361 29.9541 52.6899 28.8771 53.4952 27.5532C54.3005 26.2293 54.7264 24.7096 54.7264 23.16C54.7264 21.6104 54.3005 20.0906 53.4952 18.7668C52.6899 17.4429 51.5361 16.3658 50.1601 15.6533C50.6471 14.1682 50.7129 12.5772 50.3502 11.0569C49.9874 9.53669 49.2103 8.14679 48.1051 7.04164C46.9999 5.93649 45.61 5.15936 44.0898 4.79658C42.5696 4.43381 40.9785 4.4996 39.4934 4.98665C38.7851 3.60964 37.711 2.45445 36.3891 1.64791C35.0672 0.841368 33.5486 0.414673 32.0001 0.414673C30.4516 0.414673 28.933 0.841368 27.6111 1.64791C26.2892 2.45445 25.2151 3.60964 24.5068 4.98665C23.0217 4.4996 21.4306 4.43381 19.9104 4.79658C18.3901 5.15936 17.0002 5.93649 15.8951 7.04164C14.7899 8.14679 14.0128 9.53669 13.65 11.0569C13.2873 12.5772 13.353 14.1682 13.8401 15.6533C12.4641 16.3658 11.3103 17.4429 10.505 18.7668C9.6997 20.0906 9.27376 21.6104 9.27376 23.16C9.27376 24.7096 9.6997 26.2293 10.505 27.5532C11.3103 28.8771 12.4641 29.9541 13.8401 30.6666C13.353 32.1517 13.2873 33.7428 13.65 35.263C14.0128 36.7833 14.7899 38.1732 15.8951 39.2783C17.0002 40.3835 18.3901 41.1606 19.9104 41.5234C21.4306 41.8862 23.0217 41.8204 24.5068 41.3333C25.2151 42.7103 26.2892 43.8655 27.6111 44.6721C28.933 45.4786 30.4516 45.9053 32.0001 45.9053C33.5486 45.9053 35.0672 45.4786 36.3891 44.6721C37.711 43.8655 38.7851 42.7103 39.4934 41.3333ZM27.8668 20.8266C27.4506 21.0987 26.9489 21.2082 26.4573 21.1345C25.9656 21.0607 25.5181 20.8088 25.2001 20.4266C24.9222 20.0123 24.8091 19.5091 24.8831 19.0158C24.9571 18.5224 25.2128 18.0745 25.6001 17.76L28.8001 15.36C29.2953 14.9886 29.8842 14.7624 30.5007 14.7068C31.1173 14.6512 31.7371 14.7684 32.2908 15.0452C32.8445 15.3221 33.3102 15.7476 33.6356 16.2742C33.961 16.8008 34.1334 17.4076 34.1334 18.0266V28.0266H34.6668C35.154 28.0832 35.6035 28.3168 35.9297 28.6831C36.256 29.0494 36.4362 29.5228 36.4362 30.0133C36.4362 30.5038 36.256 30.9772 35.9297 31.3435C35.6035 31.7098 35.154 31.9434 34.6668 32H29.3334C28.803 32 28.2943 31.7893 27.9192 31.4142C27.5441 31.0391 27.3334 30.5304 27.3334 30C27.3334 29.4695 27.5441 28.9608 27.9192 28.5858C28.2943 28.2107 28.803 28 29.3334 28H30.0001V19.2266L27.8668 20.8266Z" fill="white"/>
</svg>
