<svg width="40" height="40" viewBox="0 0 40 40" fill="none" xmlns="http://www.w3.org/2000/svg">
<path fill-rule="evenodd" clip-rule="evenodd" d="M31.4417 12.2901C32.675 17.2367 29.5033 22.2867 24.3583 23.5684C23.7275 23.7263 23.0828 23.8223 22.4333 23.8551L16.7083 32.9734C16.2502 33.7029 15.5275 34.2267 14.6917 34.4351L11.4017 35.2551C10.9729 35.3619 10.5193 35.2941 10.1405 35.0666C9.76168 34.8391 9.48874 34.4704 9.38166 34.0417L8.64 31.0651C8.53132 30.6298 8.51162 30.1771 8.58207 29.7341C8.65252 29.2911 8.81168 28.8668 9.05 28.4867L14.3117 20.1067C13.6046 19.1605 13.0946 18.082 12.8117 16.9351C11.5783 11.9884 14.7483 6.93842 19.8933 5.65508C25.0383 4.37175 30.2083 7.34508 31.4417 12.2901ZM23.73 14.4951C24.8717 14.2101 25.5767 13.0884 25.3033 11.9884C25.03 10.8884 23.88 10.2301 22.7367 10.5151C21.5933 10.8001 20.8883 11.9217 21.1633 13.0201C21.4367 14.1201 22.5867 14.7801 23.73 14.4951Z" fill="black"/>
</svg>
