<svg width="40" height="40" viewBox="0 0 40 40" fill="none" xmlns="http://www.w3.org/2000/svg">
<path d="M20.0001 20C18.1667 20 16.5973 19.3472 15.2917 18.0417C13.9862 16.7361 13.3334 15.1667 13.3334 13.3333C13.3334 11.5 13.9862 9.93055 15.2917 8.62499C16.5973 7.31943 18.1667 6.66666 20.0001 6.66666C21.8334 6.66666 23.4029 7.31943 24.7084 8.62499C26.014 9.93055 26.6667 11.5 26.6667 13.3333C26.6667 15.1667 26.014 16.7361 24.7084 18.0417C23.4029 19.3472 21.8334 20 20.0001 20ZM6.66675 30V28.6667C6.66675 27.7222 6.91008 26.8544 7.39675 26.0633C7.88341 25.2722 8.52897 24.6678 9.33341 24.25C11.0556 23.3889 12.8056 22.7433 14.5834 22.3133C16.3612 21.8833 18.1667 21.6678 20.0001 21.6667C21.8334 21.6655 23.639 21.8811 25.4167 22.3133C27.1945 22.7455 28.9445 23.3911 30.6667 24.25C31.4723 24.6667 32.1184 25.2711 32.6051 26.0633C33.0917 26.8555 33.3345 27.7233 33.3334 28.6667V30C33.3334 30.9167 33.0073 31.7017 32.3551 32.355C31.7029 33.0083 30.9179 33.3344 30.0001 33.3333H10.0001C9.08341 33.3333 8.29897 33.0072 7.64675 32.355C6.99453 31.7028 6.66786 30.9178 6.66675 30Z" fill="white"/>
</svg>
