<svg width="40" height="40" viewBox="0 0 40 40" fill="none" xmlns="http://www.w3.org/2000/svg">
<path d="M20 20C18.1666 20 16.5972 19.3472 15.2916 18.0417C13.9861 16.7361 13.3333 15.1667 13.3333 13.3334C13.3333 11.5 13.9861 9.93058 15.2916 8.62502C16.5972 7.31947 18.1666 6.66669 20 6.66669C21.8333 6.66669 23.4027 7.31947 24.7083 8.62502C26.0138 9.93058 26.6666 11.5 26.6666 13.3334C26.6666 15.1667 26.0138 16.7361 24.7083 18.0417C23.4027 19.3472 21.8333 20 20 20ZM6.66663 30V28.6667C6.66663 27.7222 6.90996 26.8545 7.39663 26.0634C7.88329 25.2722 8.52885 24.6678 9.33329 24.25C11.0555 23.3889 12.8055 22.7434 14.5833 22.3134C16.3611 21.8834 18.1666 21.6678 20 21.6667C21.8333 21.6656 23.6388 21.8811 25.4166 22.3134C27.1944 22.7456 28.9444 23.3911 30.6666 24.25C31.4722 24.6667 32.1183 25.2711 32.605 26.0634C33.0916 26.8556 33.3344 27.7234 33.3333 28.6667V30C33.3333 30.9167 33.0072 31.7017 32.355 32.355C31.7027 33.0084 30.9177 33.3345 30 33.3334H9.99996C9.08329 33.3334 8.29885 33.0072 7.64663 32.355C6.9944 31.7028 6.66774 30.9178 6.66663 30Z" fill="white"/>
</svg>
