<svg width="28" height="28" viewBox="0 0 28 28" fill="none" xmlns="http://www.w3.org/2000/svg">
<path d="M14 14C12.7167 14 11.6181 13.543 10.7042 12.6291C9.7903 11.7152 9.33335 10.6166 9.33335 9.33329C9.33335 8.04996 9.7903 6.95135 10.7042 6.03746C11.6181 5.12357 12.7167 4.66663 14 4.66663C15.2834 4.66663 16.382 5.12357 17.2959 6.03746C18.2097 6.95135 18.6667 8.04996 18.6667 9.33329C18.6667 10.6166 18.2097 11.7152 17.2959 12.6291C16.382 13.543 15.2834 14 14 14ZM4.66669 21V20.0666C4.66669 19.4055 4.83702 18.7981 5.17769 18.2443C5.51835 17.6905 5.97024 17.2674 6.53335 16.975C7.73891 16.3722 8.96391 15.9203 10.2084 15.6193C11.4528 15.3183 12.7167 15.1674 14 15.1666C15.2834 15.1658 16.5472 15.3167 17.7917 15.6193C19.0361 15.9218 20.2611 16.3737 21.4667 16.975C22.0306 17.2666 22.4829 17.6897 22.8235 18.2443C23.1642 18.7988 23.3341 19.4063 23.3334 20.0666V21C23.3334 21.6416 23.1051 22.1911 22.6485 22.6485C22.192 23.1058 21.6425 23.3341 21 23.3333H7.00002C6.35835 23.3333 5.80924 23.105 5.35269 22.6485C4.89613 22.1919 4.66746 21.6424 4.66669 21Z" fill="black"/>
</svg>
