<svg width="64" height="64" viewBox="0 0 64 64" fill="none" xmlns="http://www.w3.org/2000/svg">
<g clip-path="url(#clip0_425_422)">
<path d="M62.657 52.0735L54.657 38.2602C54.5912 38.1564 54.5008 38.0704 54.3938 38.0099C54.2868 37.9495 54.1665 37.9163 54.0437 37.9135C53.9249 37.9176 53.8096 37.9547 53.7106 38.0206C53.6117 38.0865 53.5331 38.1787 53.4837 38.2868C52.8842 39.4465 52.1108 40.5077 51.1903 41.4335C49.9865 42.6428 48.5451 43.5894 46.957 44.2136C45.3689 44.8378 43.6687 45.126 41.9637 45.0602C41.7732 45.0615 41.591 45.1382 41.457 45.2735C40.669 46.0798 39.7713 46.7711 38.7903 47.3268C38.639 47.4159 38.5289 47.5611 38.4839 47.7308C38.439 47.9006 38.4629 48.0812 38.5503 48.2335L46.3903 61.5668C46.6483 62.0012 47.0243 62.3533 47.4746 62.5822C47.9249 62.8112 48.431 62.9075 48.9339 62.86C49.4368 62.8125 49.9159 62.6231 50.3154 62.3139C50.7148 62.0047 51.0183 61.5884 51.1903 61.1135L53.4037 55.0068L59.777 56.0735C60.2795 56.1659 60.798 56.1119 61.2708 55.9181C61.7435 55.7243 62.1506 55.3987 62.4437 54.9802C62.7574 54.5686 62.9447 54.0747 62.9826 53.5586C63.0204 53.0424 62.9073 52.5264 62.657 52.0735ZM23.217 45.2735C23.1524 45.2058 23.0731 45.1538 22.9853 45.1214C22.8975 45.0891 22.8034 45.0772 22.7103 45.0868C21.0043 45.1412 19.3053 44.8451 17.7183 44.2167C16.1313 43.5883 14.69 42.641 13.4837 41.4335C12.5632 40.5077 11.7898 39.4465 11.1903 38.2868C11.1409 38.1787 11.0623 38.0865 10.9634 38.0206C10.8645 37.9547 10.7491 37.9176 10.6303 37.9135C10.5075 37.9163 10.3872 37.9495 10.2802 38.0099C10.1732 38.0704 10.0828 38.1564 10.017 38.2602L2.01701 52.0735C1.77593 52.5045 1.6593 52.9941 1.6801 53.4875C1.70091 53.9809 1.85833 54.4589 2.13483 54.8681C2.41133 55.2773 2.79604 55.6017 3.24608 55.8051C3.69612 56.0086 4.19381 56.083 4.68367 56.0202L11.057 54.9535L13.2703 61.0602C13.4424 61.5351 13.7458 61.9514 14.1453 62.2606C14.5448 62.5698 15.0239 62.7592 15.5268 62.8067C16.0297 62.8542 16.5358 62.7578 16.9861 62.5289C17.4364 62.3 17.8124 61.9478 18.0703 61.5135L25.9103 48.1802C25.9891 48.0508 26.0215 47.8984 26.0021 47.7481C25.9827 47.5978 25.9127 47.4587 25.8037 47.3535C24.8548 46.7754 23.9853 46.0762 23.217 45.2735ZM39.8303 40.6868C41.3154 41.1739 42.9065 41.2397 44.4267 40.8769C45.947 40.5141 47.3369 39.737 48.442 38.6318C49.5472 37.5267 50.3243 36.1368 50.6871 34.6165C51.0498 33.0963 50.9841 31.5053 50.497 30.0202C51.873 29.3076 53.0268 28.2306 53.8321 26.9067C54.6374 25.5828 55.0633 24.0631 55.0633 22.5135C55.0633 20.9639 54.6374 19.4442 53.8321 18.1203C53.0268 16.7964 51.873 15.7194 50.497 15.0068C50.9841 13.5217 51.0498 11.9307 50.6871 10.4104C50.3243 8.89021 49.5472 7.50031 48.442 6.39515C47.3369 5.29 45.947 4.51287 44.4267 4.1501C42.9065 3.78733 41.3154 3.85312 39.8303 4.34016C39.122 2.96316 38.0479 1.80796 36.726 1.00142C35.4041 0.194884 33.8855 -0.231812 32.337 -0.231812C30.7885 -0.231812 29.2699 0.194884 27.948 1.00142C26.6261 1.80796 25.552 2.96316 24.8437 4.34016C23.3586 3.85312 21.7675 3.78733 20.2473 4.1501C18.7271 4.51287 17.3372 5.29 16.232 6.39515C15.1268 7.50031 14.3497 8.89021 13.9869 10.4104C13.6242 11.9307 13.69 13.5217 14.177 15.0068C12.801 15.7194 11.6472 16.7964 10.8419 18.1203C10.0366 19.4442 9.61068 20.9639 9.61068 22.5135C9.61068 24.0631 10.0366 25.5828 10.8419 26.9067C11.6472 28.2306 12.801 29.3076 14.177 30.0202C13.69 31.5053 13.6242 33.0963 13.9869 34.6165C14.3497 36.1368 15.1268 37.5267 16.232 38.6318C17.3372 39.737 18.7271 40.5141 20.2473 40.8769C21.7675 41.2397 23.3586 41.1739 24.8437 40.6868C25.552 42.0638 26.6261 43.219 27.948 44.0256C29.2699 44.8321 30.7885 45.2588 32.337 45.2588C33.8855 45.2588 35.4041 44.8321 36.726 44.0256C38.0479 43.219 39.122 42.0638 39.8303 40.6868ZM28.3369 19.8536C27.9207 20.1257 27.3369 19.8536 26.7942 20.488C27 19.5001 26.655 19.7358 26.3369 19.3536C26.059 18.9393 25.146 18.8626 25.22 18.3693C25.294 17.8759 24.8328 19.2772 25.22 18.9627L26.7942 20.488L30.3369 19.3536C30.8321 18.9822 32.6277 18.2035 33.3369 17.8866C34.0461 17.5697 33.9725 17.6026 34.4703 17.3802C35.0672 17.1135 33.5115 14.8271 33.8369 15.3536C34.3369 16.3536 34.4703 16.7611 34.4703 17.3802L38 32.0001L36.7394 26.7786C37.2266 26.8351 35.9404 27.6703 36.2666 28.0366C36.5929 28.4029 36.7731 28.8763 36.7731 29.3668C36.7731 29.8573 36.5929 30.3307 36.2666 30.697C35.9404 31.0633 35.4909 31.297 35.0037 31.3535H29.6703C29.1399 31.3535 28.6312 31.1428 28.2561 30.7677C27.8811 30.3926 27.6703 29.8839 27.6703 29.3535C27.6703 28.8231 26.6249 32.3752 27 32.0001C27.3751 31.625 31.9696 33.0001 32.5 33.0001L38 32.0001L34.4703 17.3802L28.3369 19.8536Z" fill="white"/>
<path d="M35.58 28.54C36.0467 28.54 36.4533 28.66 36.8 28.9C37.1467 29.14 37.32 29.4933 37.32 29.96C37.32 30.4267 37.1467 30.78 36.8 31.02C36.4533 31.2733 36.0467 31.4 35.58 31.4H27.44C27.1067 31.4 26.8267 31.3067 26.6 31.12C26.3733 30.9467 26.26 30.6867 26.26 30.34C26.26 30.0333 26.3333 29.78 26.48 29.58C26.6267 29.38 26.8 29.1733 27 28.96L30.18 25.54C30.5133 25.18 30.8533 24.82 31.2 24.46C31.5467 24.0867 31.86 23.7133 32.14 23.34C32.42 22.9533 32.6467 22.5667 32.82 22.18C33.0067 21.78 33.1 21.3667 33.1 20.94C33.1 20.3933 32.9 19.9533 32.5 19.62C32.1133 19.2867 31.6467 19.12 31.1 19.12C30.26 19.12 29.5533 19.4067 28.98 19.98C28.8067 20.1533 28.6267 20.3 28.44 20.42C28.2533 20.54 28.0667 20.6333 27.88 20.7C27.6933 20.7533 27.5 20.7667 27.3 20.74C27.1133 20.7133 26.9333 20.6333 26.76 20.5C26.44 20.26 26.28 19.9467 26.28 19.56C26.28 19.1733 26.4133 18.7867 26.68 18.4C27.1867 17.68 27.8533 17.1467 28.68 16.8C29.5067 16.4533 30.4 16.28 31.36 16.28C32.0933 16.28 32.7667 16.38 33.38 16.58C34.0067 16.78 34.54 17.08 34.98 17.48C35.4333 17.8667 35.78 18.3467 36.02 18.92C36.2733 19.48 36.4 20.1267 36.4 20.86C36.4 21.2733 36.34 21.6733 36.22 22.06C36.1133 22.4467 35.96 22.8267 35.76 23.2C35.56 23.5733 35.3267 23.9333 35.06 24.28C34.8067 24.6267 34.5333 24.9667 34.24 25.3L31.36 28.54H35.58Z" fill="#FFC900"/>
</g>
<defs>
<clipPath id="clip0_425_422">
<rect width="64" height="64" fill="white"/>
</clipPath>
</defs>
</svg>
