<svg width="64" height="64" viewBox="0 0 64 64" fill="none" xmlns="http://www.w3.org/2000/svg">
<g clip-path="url(#clip0_425_459)">
<path d="M62.657 52.0735L54.657 38.2602C54.5912 38.1564 54.5008 38.0704 54.3938 38.0099C54.2868 37.9495 54.1665 37.9163 54.0437 37.9135C53.9249 37.9176 53.8096 37.9547 53.7106 38.0206C53.6117 38.0865 53.5331 38.1787 53.4837 38.2868C52.8842 39.4465 52.1108 40.5077 51.1903 41.4335C49.9865 42.6428 48.5451 43.5894 46.957 44.2136C45.3689 44.8378 43.6687 45.126 41.9637 45.0602C41.7732 45.0615 41.591 45.1382 41.457 45.2735C40.669 46.0798 39.7713 46.7711 38.7903 47.3268C38.639 47.4159 38.5289 47.5611 38.4839 47.7308C38.439 47.9006 38.4629 48.0812 38.5503 48.2335L46.3903 61.5668C46.6483 62.0012 47.0243 62.3533 47.4746 62.5822C47.9249 62.8112 48.431 62.9075 48.9339 62.86C49.4368 62.8125 49.9159 62.6231 50.3154 62.3139C50.7148 62.0047 51.0183 61.5884 51.1903 61.1135L53.4037 55.0068L59.777 56.0735C60.2795 56.1659 60.798 56.1119 61.2708 55.9181C61.7435 55.7243 62.1506 55.3987 62.4437 54.9802C62.7574 54.5686 62.9447 54.0747 62.9826 53.5586C63.0204 53.0424 62.9073 52.5264 62.657 52.0735ZM23.217 45.2735C23.1524 45.2058 23.0731 45.1538 22.9853 45.1214C22.8975 45.0891 22.8034 45.0772 22.7103 45.0868C21.0043 45.1412 19.3053 44.8451 17.7183 44.2167C16.1313 43.5883 14.69 42.641 13.4837 41.4335C12.5632 40.5077 11.7898 39.4465 11.1903 38.2868C11.1409 38.1787 11.0623 38.0865 10.9634 38.0206C10.8645 37.9547 10.7491 37.9176 10.6303 37.9135C10.5075 37.9163 10.3872 37.9495 10.2802 38.0099C10.1732 38.0704 10.0828 38.1564 10.017 38.2602L2.01701 52.0735C1.77593 52.5045 1.6593 52.9941 1.6801 53.4875C1.70091 53.9809 1.85833 54.4589 2.13483 54.8681C2.41133 55.2773 2.79604 55.6017 3.24608 55.8051C3.69612 56.0086 4.19381 56.083 4.68367 56.0202L11.057 54.9535L13.2703 61.0602C13.4424 61.5351 13.7458 61.9514 14.1453 62.2606C14.5448 62.5698 15.0239 62.7592 15.5268 62.8067C16.0297 62.8542 16.5358 62.7578 16.9861 62.5289C17.4364 62.3 17.8124 61.9478 18.0703 61.5135L25.9103 48.1802C25.9891 48.0508 26.0215 47.8984 26.0021 47.7481C25.9827 47.5978 25.9127 47.4587 25.8037 47.3535C24.8548 46.7754 23.9853 46.0762 23.217 45.2735ZM39.8303 40.6868C41.3154 41.1739 42.9065 41.2397 44.4267 40.8769C45.947 40.5141 47.3369 39.737 48.442 38.6318C49.5472 37.5267 50.3243 36.1368 50.6871 34.6165C51.0498 33.0963 50.9841 31.5053 50.497 30.0202C51.873 29.3076 53.0268 28.2306 53.8321 26.9067C54.6374 25.5828 55.0633 24.0631 55.0633 22.5135C55.0633 20.9639 54.6374 19.4442 53.8321 18.1203C53.0268 16.7964 51.873 15.7194 50.497 15.0068C50.9841 13.5217 51.0498 11.9307 50.6871 10.4104C50.3243 8.89021 49.5472 7.50031 48.442 6.39515C47.3369 5.29 45.947 4.51287 44.4267 4.1501C42.9065 3.78733 41.3154 3.85312 39.8303 4.34016C39.122 2.96316 38.0479 1.80796 36.726 1.00142C35.4041 0.194884 33.8855 -0.231812 32.337 -0.231812C30.7885 -0.231812 29.2699 0.194884 27.948 1.00142C26.6261 1.80796 25.552 2.96316 24.8437 4.34016C23.3586 3.85312 21.7675 3.78733 20.2473 4.1501C18.7271 4.51287 17.3372 5.29 16.232 6.39515C15.1268 7.50031 14.3497 8.89021 13.9869 10.4104C13.6242 11.9307 13.69 13.5217 14.177 15.0068C12.801 15.7194 11.6472 16.7964 10.8419 18.1203C10.0366 19.4442 9.61068 20.9639 9.61068 22.5135C9.61068 24.0631 10.0366 25.5828 10.8419 26.9067C11.6472 28.2306 12.801 29.3076 14.177 30.0202C13.69 31.5053 13.6242 33.0963 13.9869 34.6165C14.3497 36.1368 15.1268 37.5267 16.232 38.6318C17.3372 39.737 18.7271 40.5141 20.2473 40.8769C21.7675 41.2397 23.3586 41.1739 24.8437 40.6868C25.552 42.0638 26.6261 43.219 27.948 44.0256C29.2699 44.8321 30.7885 45.2588 32.337 45.2588C33.8855 45.2588 35.4041 44.8321 36.726 44.0256C38.0479 43.219 39.122 42.0638 39.8303 40.6868ZM28.3369 19.8536C27.9207 20.1257 27.3369 19.8536 26.7942 20.488C27 19.5001 26.655 19.7358 26.3369 19.3536C26.059 18.9393 25.146 18.8626 25.22 18.3693C25.294 17.8759 24.8328 19.2772 25.22 18.9627L26.7942 20.488L30.3369 19.3536C30.8321 18.9822 32.6277 18.2035 33.3369 17.8866C34.0461 17.5697 33.9725 17.6026 34.4703 17.3802C35.0672 17.1135 33.5115 14.8271 33.8369 15.3536C34.3369 16.3536 34.4703 16.7611 34.4703 17.3802L38 32.0001L36.7394 26.7786C37.2266 26.8351 35.9404 27.6703 36.2666 28.0366C36.5929 28.4029 36.7731 28.8763 36.7731 29.3668C36.7731 29.8573 36.5929 30.3307 36.2666 30.697C35.9404 31.0633 35.4909 31.297 35.0037 31.3535H29.6703C29.1399 31.3535 28.6312 31.1428 28.2561 30.7677C27.8811 30.3926 27.6703 29.8839 27.6703 29.3535C27.6703 28.8231 26.6249 32.3752 27 32.0001C27.3751 31.625 31.9696 33.0001 32.5 33.0001L38 32.0001L34.4703 17.3802L28.3369 19.8536Z" fill="white"/>
<path d="M28.2 19.24C27.6933 19.24 27.28 19.1467 26.96 18.96C26.6533 18.7733 26.5 18.4267 26.5 17.92C26.5 17.4133 26.6533 17.0667 26.96 16.88C27.28 16.68 27.6933 16.58 28.2 16.58H34.28C34.8267 16.58 35.2667 16.6867 35.6 16.9C35.9467 17.1 36.12 17.4733 36.12 18.02C36.12 18.54 35.94 18.96 35.58 19.28L31.84 22.62C32 22.58 32.1667 22.5467 32.34 22.52C32.5133 22.4933 32.6933 22.48 32.88 22.48C33.48 22.48 34.0267 22.58 34.52 22.78C35.0267 22.98 35.4533 23.26 35.8 23.62C36.16 23.98 36.44 24.42 36.64 24.94C36.84 25.4467 36.94 26.0067 36.94 26.62C36.94 27.4467 36.7933 28.1733 36.5 28.8C36.2067 29.4267 35.8067 29.96 35.3 30.4C34.7933 30.8267 34.1933 31.1467 33.5 31.36C32.8067 31.5867 32.0533 31.7 31.24 31.7C30.84 31.7 30.4267 31.68 30 31.64C29.5867 31.6 29.18 31.5267 28.78 31.42C28.38 31.3267 27.9933 31.1867 27.62 31C27.2467 30.8267 26.9133 30.6067 26.62 30.34C26.3267 30.0867 26.1467 29.7867 26.08 29.44C26.0267 29.08 26.1133 28.7333 26.34 28.4C26.58 28.08 26.88 27.8933 27.24 27.84C27.6133 27.7867 27.9333 27.8533 28.2 28.04C28.68 28.36 29.1667 28.5867 29.66 28.72C30.1667 28.8533 30.7 28.92 31.26 28.92C32.02 28.92 32.6333 28.7467 33.1 28.4C33.5667 28.04 33.8 27.5 33.8 26.78C33.8 26.3667 33.7067 26.0133 33.52 25.72C33.3333 25.4133 33.08 25.1733 32.76 25C32.44 24.8133 32.06 24.68 31.62 24.6C31.1933 24.52 30.7333 24.4933 30.24 24.52L28.78 24.58C28.4733 24.5933 28.22 24.5067 28.02 24.32C27.82 24.12 27.72 23.86 27.72 23.54C27.72 23.1933 27.7933 22.92 27.94 22.72C28.1 22.5067 28.2867 22.3067 28.5 22.12L31.62 19.24H28.2Z" fill="#FFC900"/>
</g>
<defs>
<clipPath id="clip0_425_459">
<rect width="64" height="64" fill="white"/>
</clipPath>
</defs>
</svg>
